<?xml version="1.0" encoding="UTF-8" standalone="no"?>
<!DOCTYPE svg PUBLIC "-//W3C//DTD SVG 1.1//EN"
 "http://www.w3.org/Graphics/SVG/1.1/DTD/svg11.dtd">
<!-- Generated by graphviz version 2.40.1 (20161225.0304)
 -->
<!-- Title: dependencies Pages: 1 -->
<svg width="683pt" height="211pt"
 viewBox="0.00 0.00 683.00 211.00" xmlns="http://www.w3.org/2000/svg" xmlns:xlink="http://www.w3.org/1999/xlink">
<g id="graph0" class="graph" transform="scale(1 1) rotate(0) translate(4 207)">
<title>dependencies</title>
<polygon fill="#ffffff" stroke="transparent" points="-4,4 -4,-207 679,-207 679,4 -4,4"/>
<text text-anchor="start" x="316.5091" y="-42.4" font-family="sans-serif" font-weight="bold" font-size="14.00" fill="#000000">Legend</text>
<polygon fill="#ffffb3" stroke="transparent" points="103.5,-10 103.5,-30 123.5,-30 123.5,-10 103.5,-10"/>
<text text-anchor="start" x="127.129" y="-15.4" font-family="sans-serif" font-size="14.00" fill="#000000"> &#160;Declarations</text>
<polygon fill="#8dd3c7" stroke="transparent" points="216.5,-10 216.5,-30 236.5,-30 236.5,-10 216.5,-10"/>
<text text-anchor="start" x="240.2251" y="-15.4" font-family="sans-serif" font-size="14.00" fill="#000000"> &#160;Module</text>
<polygon fill="#80b1d3" stroke="transparent" points="302.5,-10 302.5,-30 322.5,-30 322.5,-10 302.5,-10"/>
<text text-anchor="start" x="326.2812" y="-15.4" font-family="sans-serif" font-size="14.00" fill="#000000"> &#160;Bootstrap</text>
<polygon fill="#fdb462" stroke="transparent" points="399.5,-10 399.5,-30 419.5,-30 419.5,-10 399.5,-10"/>
<text text-anchor="start" x="423.1732" y="-15.4" font-family="sans-serif" font-size="14.00" fill="#000000"> &#160;Providers</text>
<polygon fill="#fb8072" stroke="transparent" points="495.5,-10 495.5,-30 515.5,-30 515.5,-10 495.5,-10"/>
<text text-anchor="start" x="519.2258" y="-15.4" font-family="sans-serif" font-size="14.00" fill="#000000"> &#160;Exports</text>
<g id="clust1" class="cluster">
<title>cluster_AppModule</title>
<polygon fill="none" stroke="#000000" stroke-dasharray="1,5" points="8,-70 8,-195 667,-195 667,-70 8,-70"/>
</g>
<g id="clust3" class="cluster">
<title>cluster_AppModule_imports</title>
<polygon fill="none" stroke="#000000" points="154,-78 154,-130 659,-130 659,-78 154,-78"/>
</g>
<g id="clust6" class="cluster">
<title>cluster_AppModule_providers</title>
<polygon fill="none" stroke="#000000" points="16,-78 16,-130 146,-130 146,-78 16,-78"/>
</g>
<!-- AdminModule -->
<g id="node1" class="node">
<title>AdminModule</title>
<polygon fill="#8dd3c7" stroke="#000000" points="651.4386,-122 648.4386,-126 627.4386,-126 624.4386,-122 552.5614,-122 552.5614,-86 651.4386,-86 651.4386,-122"/>
<text text-anchor="middle" x="602" y="-99.8" font-family="Times,serif" font-size="14.00" fill="#000000">AdminModule</text>
</g>
<!-- AppModule -->
<g id="node5" class="node">
<title>AppModule</title>
<polygon fill="#8dd3c7" stroke="#000000" points="365.6571,-187 362.6571,-191 341.6571,-191 338.6571,-187 282.3429,-187 282.3429,-151 365.6571,-151 365.6571,-187"/>
<text text-anchor="middle" x="324" y="-164.8" font-family="Times,serif" font-size="14.00" fill="#000000">AppModule</text>
</g>
<!-- AdminModule&#45;&gt;AppModule -->
<g id="edge1" class="edge">
<title>AdminModule&#45;&gt;AppModule</title>
<path fill="none" stroke="#000000" d="M602,-122.2843C602,-143.3211 602,-175 602,-175 602,-175 375.9204,-175 375.9204,-175"/>
<polygon fill="#000000" stroke="#000000" points="375.9204,-171.5001 365.9204,-175 375.9204,-178.5001 375.9204,-171.5001"/>
</g>
<!-- AuthenticationModule -->
<g id="node2" class="node">
<title>AuthenticationModule</title>
<polygon fill="#8dd3c7" stroke="#000000" points="534.2534,-122 531.2534,-126 510.2534,-126 507.2534,-122 391.7466,-122 391.7466,-86 534.2534,-86 534.2534,-122"/>
<text text-anchor="middle" x="463" y="-99.8" font-family="Times,serif" font-size="14.00" fill="#000000">AuthenticationModule</text>
</g>
<!-- AuthenticationModule&#45;&gt;AppModule -->
<g id="edge2" class="edge">
<title>AuthenticationModule&#45;&gt;AppModule</title>
<path fill="none" stroke="#000000" d="M463,-122.0225C463,-139.3734 463,-163 463,-163 463,-163 375.7046,-163 375.7046,-163"/>
<polygon fill="#000000" stroke="#000000" points="375.7046,-159.5001 365.7046,-163 375.7045,-166.5001 375.7046,-159.5001"/>
</g>
<!-- GuardsModule -->
<g id="node3" class="node">
<title>GuardsModule</title>
<polygon fill="#8dd3c7" stroke="#000000" points="373.9762,-122 370.9762,-126 349.9762,-126 346.9762,-122 274.0238,-122 274.0238,-86 373.9762,-86 373.9762,-122"/>
<text text-anchor="middle" x="324" y="-99.8" font-family="Times,serif" font-size="14.00" fill="#000000">GuardsModule</text>
</g>
<!-- GuardsModule&#45;&gt;AppModule -->
<g id="edge3" class="edge">
<title>GuardsModule&#45;&gt;AppModule</title>
<path fill="none" stroke="#000000" d="M324,-122.1061C324,-122.1061 324,-140.991 324,-140.991"/>
<polygon fill="#000000" stroke="#000000" points="320.5001,-140.9909 324,-150.991 327.5001,-140.991 320.5001,-140.9909"/>
</g>
<!-- JuniorModule -->
<g id="node4" class="node">
<title>JuniorModule</title>
<polygon fill="#8dd3c7" stroke="#000000" points="256.0467,-122 253.0467,-126 232.0467,-126 229.0467,-122 161.9533,-122 161.9533,-86 256.0467,-86 256.0467,-122"/>
<text text-anchor="middle" x="209" y="-99.8" font-family="Times,serif" font-size="14.00" fill="#000000">JuniorModule</text>
</g>
<!-- JuniorModule&#45;&gt;AppModule -->
<g id="edge4" class="edge">
<title>JuniorModule&#45;&gt;AppModule</title>
<path fill="none" stroke="#000000" d="M209,-122.0225C209,-139.3734 209,-163 209,-163 209,-163 272.157,-163 272.157,-163"/>
<polygon fill="#000000" stroke="#000000" points="272.1571,-166.5001 282.157,-163 272.157,-159.5001 272.1571,-166.5001"/>
</g>
<!-- AppService -->
<g id="node6" class="node">
<title>AppService</title>
<ellipse fill="#fdb462" stroke="#000000" cx="81" cy="-104" rx="56.7406" ry="18"/>
<text text-anchor="middle" x="81" y="-99.8" font-family="Times,serif" font-size="14.00" fill="#000000">AppService</text>
</g>
<!-- AppService&#45;&gt;AppModule -->
<g id="edge5" class="edge">
<title>AppService&#45;&gt;AppModule</title>
<path fill="none" stroke="#000000" d="M81,-122.2843C81,-143.3211 81,-175 81,-175 81,-175 272.2268,-175 272.2268,-175"/>
<polygon fill="#000000" stroke="#000000" points="272.2268,-178.5001 282.2268,-175 272.2268,-171.5001 272.2268,-178.5001"/>
</g>
</g>
</svg>
