<?xml version="1.0" encoding="UTF-8" standalone="no"?>
<!DOCTYPE svg PUBLIC "-//W3C//DTD SVG 1.1//EN"
 "http://www.w3.org/Graphics/SVG/1.1/DTD/svg11.dtd">
<!-- Generated by graphviz version 2.40.1 (20161225.0304)
 -->
<!-- Title: dependencies Pages: 1 -->
<svg width="1183pt" height="298pt"
 viewBox="0.00 0.00 1183.00 298.00" xmlns="http://www.w3.org/2000/svg" xmlns:xlink="http://www.w3.org/1999/xlink">
<g id="graph0" class="graph" transform="scale(1 1) rotate(0) translate(4 294)">
<title>dependencies</title>
<polygon fill="#ffffff" stroke="transparent" points="-4,4 -4,-294 1179,-294 1179,4 -4,4"/>
<text text-anchor="start" x="566.5091" y="-42.4" font-family="sans-serif" font-weight="bold" font-size="14.00" fill="#000000">Legend</text>
<polygon fill="#ffffb3" stroke="transparent" points="353.5,-10 353.5,-30 373.5,-30 373.5,-10 353.5,-10"/>
<text text-anchor="start" x="377.129" y="-15.4" font-family="sans-serif" font-size="14.00" fill="#000000"> &#160;Declarations</text>
<polygon fill="#8dd3c7" stroke="transparent" points="466.5,-10 466.5,-30 486.5,-30 486.5,-10 466.5,-10"/>
<text text-anchor="start" x="490.2251" y="-15.4" font-family="sans-serif" font-size="14.00" fill="#000000"> &#160;Module</text>
<polygon fill="#80b1d3" stroke="transparent" points="552.5,-10 552.5,-30 572.5,-30 572.5,-10 552.5,-10"/>
<text text-anchor="start" x="576.2812" y="-15.4" font-family="sans-serif" font-size="14.00" fill="#000000"> &#160;Bootstrap</text>
<polygon fill="#fdb462" stroke="transparent" points="649.5,-10 649.5,-30 669.5,-30 669.5,-10 649.5,-10"/>
<text text-anchor="start" x="673.1732" y="-15.4" font-family="sans-serif" font-size="14.00" fill="#000000"> &#160;Providers</text>
<polygon fill="#fb8072" stroke="transparent" points="745.5,-10 745.5,-30 765.5,-30 765.5,-10 745.5,-10"/>
<text text-anchor="start" x="769.2258" y="-15.4" font-family="sans-serif" font-size="14.00" fill="#000000"> &#160;Exports</text>
<g id="clust1" class="cluster">
<title>cluster_AdminModule</title>
<polygon fill="none" stroke="#000000" stroke-dasharray="1,5" points="1001,-70 1001,-282 1167,-282 1167,-70 1001,-70"/>
</g>
<g id="clust4" class="cluster">
<title>cluster_AdminModule_exports</title>
<polygon fill="none" stroke="#000000" points="1017,-222 1017,-274 1133,-274 1133,-222 1017,-222"/>
</g>
<g id="clust6" class="cluster">
<title>cluster_AdminModule_providers</title>
<polygon fill="none" stroke="#000000" points="1009,-78 1009,-130 1159,-130 1159,-78 1009,-78"/>
</g>
<g id="clust7" class="cluster">
<title>cluster_AppModule</title>
<polygon fill="none" stroke="#000000" stroke-dasharray="1,5" points="422,-146 422,-274 965,-274 965,-146 422,-146"/>
</g>
<g id="clust9" class="cluster">
<title>cluster_AppModule_imports</title>
<polygon fill="none" stroke="#000000" points="430,-154 430,-206 819,-206 819,-154 430,-154"/>
</g>
<g id="clust12" class="cluster">
<title>cluster_AppModule_providers</title>
<polygon fill="none" stroke="#000000" points="827,-154 827,-206 957,-206 957,-154 827,-154"/>
</g>
<g id="clust13" class="cluster">
<title>cluster_AuthenticationModule</title>
<polygon fill="none" stroke="#000000" stroke-dasharray="1,5" points="467,-70 467,-138 993,-138 993,-70 467,-70"/>
</g>
<g id="clust16" class="cluster">
<title>cluster_AuthenticationModule_exports</title>
<polygon fill="none" stroke="#000000" points="825,-78 825,-130 985,-130 985,-78 825,-78"/>
</g>
<g id="clust18" class="cluster">
<title>cluster_AuthenticationModule_providers</title>
<polygon fill="none" stroke="#000000" points="475,-78 475,-130 817,-130 817,-78 475,-78"/>
</g>
<g id="clust19" class="cluster">
<title>cluster_GuardsModule</title>
<polygon fill="none" stroke="#000000" stroke-dasharray="1,5" points="8,-214 8,-282 126,-282 126,-214 8,-214"/>
</g>
<g id="clust22" class="cluster">
<title>cluster_GuardsModule_exports</title>
<polygon fill="none" stroke="#000000" points="16,-222 16,-274 118,-274 118,-222 16,-222"/>
</g>
<g id="clust25" class="cluster">
<title>cluster_JuniorModule</title>
<polygon fill="none" stroke="#000000" stroke-dasharray="1,5" points="134,-214 134,-282 414,-282 414,-214 134,-214"/>
</g>
<g id="clust28" class="cluster">
<title>cluster_JuniorModule_exports</title>
<polygon fill="none" stroke="#000000" points="294,-222 294,-274 406,-274 406,-222 294,-222"/>
</g>
<g id="clust30" class="cluster">
<title>cluster_JuniorModule_providers</title>
<polygon fill="none" stroke="#000000" points="142,-222 142,-274 286,-274 286,-222 142,-222"/>
</g>
<!-- AdminService  -->
<g id="node1" class="node">
<title>AdminService </title>
<polygon fill="#fb8072" stroke="#000000" points="1125.3661,-266 1024.6339,-266 1024.6339,-230 1125.3661,-230 1125.3661,-266"/>
<text text-anchor="middle" x="1075" y="-243.8" font-family="Times,serif" font-size="14.00" fill="#000000">AdminService </text>
</g>
<!-- AdminModule -->
<g id="node2" class="node">
<title>AdminModule</title>
<polygon fill="#8dd3c7" stroke="#000000" points="1124.4386,-198 1121.4386,-202 1100.4386,-202 1097.4386,-198 1025.5614,-198 1025.5614,-162 1124.4386,-162 1124.4386,-198"/>
<text text-anchor="middle" x="1075" y="-175.8" font-family="Times,serif" font-size="14.00" fill="#000000">AdminModule</text>
</g>
<!-- AdminModule&#45;&gt;AdminService  -->
<g id="edge1" class="edge">
<title>AdminModule&#45;&gt;AdminService </title>
<path fill="none" stroke="#000000" stroke-dasharray="5,2" d="M1075,-198.2228C1075,-198.2228 1075,-219.7269 1075,-219.7269"/>
<polygon fill="#000000" stroke="#000000" points="1071.5001,-219.7269 1075,-229.7269 1078.5001,-219.727 1071.5001,-219.7269"/>
</g>
<!-- AppModule -->
<g id="node7" class="node">
<title>AppModule</title>
<polygon fill="#8dd3c7" stroke="#000000" points="781.6571,-266 778.6571,-270 757.6571,-270 754.6571,-266 698.3429,-266 698.3429,-230 781.6571,-230 781.6571,-266"/>
<text text-anchor="middle" x="740" y="-243.8" font-family="Times,serif" font-size="14.00" fill="#000000">AppModule</text>
</g>
<!-- AdminModule&#45;&gt;AppModule -->
<g id="edge3" class="edge">
<title>AdminModule&#45;&gt;AppModule</title>
<path fill="none" stroke="#000000" d="M1025.6046,-180C1022.7442,-180 1021.0007,-180 1021.0007,-180 1021.0007,-180 1021.0007,-254 1021.0007,-254 1021.0007,-254 791.7652,-254 791.7652,-254"/>
<polygon fill="#000000" stroke="#000000" points="791.7652,-250.5001 781.7652,-254 791.7652,-257.5001 791.7652,-250.5001"/>
</g>
<!-- AdminService -->
<g id="node3" class="node">
<title>AdminService</title>
<ellipse fill="#fdb462" stroke="#000000" cx="1084" cy="-104" rx="66.6325" ry="18"/>
<text text-anchor="middle" x="1084" y="-99.8" font-family="Times,serif" font-size="14.00" fill="#000000">AdminService</text>
</g>
<!-- AdminService&#45;&gt;AdminModule -->
<g id="edge2" class="edge">
<title>AdminService&#45;&gt;AdminModule</title>
<path fill="none" stroke="#000000" d="M1075,-122.0109C1075,-122.0109 1075,-151.855 1075,-151.855"/>
<polygon fill="#000000" stroke="#000000" points="1071.5001,-151.8549 1075,-161.855 1078.5001,-151.855 1071.5001,-151.8549"/>
</g>
<!-- AuthenticationModule -->
<g id="node4" class="node">
<title>AuthenticationModule</title>
<polygon fill="#8dd3c7" stroke="#000000" points="811.2534,-198 808.2534,-202 787.2534,-202 784.2534,-198 668.7466,-198 668.7466,-162 811.2534,-162 811.2534,-198"/>
<text text-anchor="middle" x="740" y="-175.8" font-family="Times,serif" font-size="14.00" fill="#000000">AuthenticationModule</text>
</g>
<!-- AuthenticationModule&#45;&gt;AppModule -->
<g id="edge4" class="edge">
<title>AuthenticationModule&#45;&gt;AppModule</title>
<path fill="none" stroke="#000000" d="M740,-198.2228C740,-198.2228 740,-219.7269 740,-219.7269"/>
<polygon fill="#000000" stroke="#000000" points="736.5001,-219.7269 740,-229.7269 743.5001,-219.727 736.5001,-219.7269"/>
</g>
<!-- AuthenticationService  -->
<g id="node9" class="node">
<title>AuthenticationService </title>
<polygon fill="#fb8072" stroke="#000000" points="977.1814,-122 832.8186,-122 832.8186,-86 977.1814,-86 977.1814,-122"/>
<text text-anchor="middle" x="905" y="-99.8" font-family="Times,serif" font-size="14.00" fill="#000000">AuthenticationService </text>
</g>
<!-- AuthenticationModule&#45;&gt;AuthenticationService  -->
<g id="edge8" class="edge">
<title>AuthenticationModule&#45;&gt;AuthenticationService </title>
<path fill="none" stroke="#000000" stroke-dasharray="5,2" d="M811.2956,-180C817.808,-180 822.0181,-180 822.0181,-180 822.0181,-180 822.0181,-104 822.0181,-104 822.0181,-104 823.069,-104 823.069,-104"/>
<polygon fill="#000000" stroke="#000000" points="822.5278,-107.5001 832.5278,-104 822.5277,-100.5001 822.5278,-107.5001"/>
</g>
<!-- GuardsModule -->
<g id="node5" class="node">
<title>GuardsModule</title>
<polygon fill="#8dd3c7" stroke="#000000" points="537.9762,-198 534.9762,-202 513.9762,-202 510.9762,-198 438.0238,-198 438.0238,-162 537.9762,-162 537.9762,-198"/>
<text text-anchor="middle" x="488" y="-175.8" font-family="Times,serif" font-size="14.00" fill="#000000">GuardsModule</text>
</g>
<!-- GuardsModule&#45;&gt;AppModule -->
<g id="edge5" class="edge">
<title>GuardsModule&#45;&gt;AppModule</title>
<path fill="none" stroke="#000000" d="M488,-198.2479C488,-221.0179 488,-257 488,-257 488,-257 688.1044,-257 688.1044,-257"/>
<polygon fill="#000000" stroke="#000000" points="688.1045,-260.5001 698.1044,-257 688.1044,-253.5001 688.1045,-260.5001"/>
</g>
<!-- RolesGuard  -->
<g id="node12" class="node">
<title>RolesGuard </title>
<polygon fill="#fb8072" stroke="#000000" points="110.369,-266 23.631,-266 23.631,-230 110.369,-230 110.369,-266"/>
<text text-anchor="middle" x="67" y="-243.8" font-family="Times,serif" font-size="14.00" fill="#000000">RolesGuard </text>
</g>
<!-- GuardsModule&#45;&gt;RolesGuard  -->
<g id="edge11" class="edge">
<title>GuardsModule&#45;&gt;RolesGuard </title>
<path fill="none" stroke="#000000" stroke-dasharray="5,2" d="M437.6357,-180C325.8888,-180 67,-180 67,-180 67,-180 67,-219.7772 67,-219.7772"/>
<polygon fill="#000000" stroke="#000000" points="63.5001,-219.7772 67,-229.7772 70.5001,-219.7773 63.5001,-219.7772"/>
</g>
<!-- JuniorModule -->
<g id="node6" class="node">
<title>JuniorModule</title>
<polygon fill="#8dd3c7" stroke="#000000" points="650.0467,-198 647.0467,-202 626.0467,-202 623.0467,-198 555.9533,-198 555.9533,-162 650.0467,-162 650.0467,-198"/>
<text text-anchor="middle" x="603" y="-175.8" font-family="Times,serif" font-size="14.00" fill="#000000">JuniorModule</text>
</g>
<!-- JuniorModule&#45;&gt;AppModule -->
<g id="edge6" class="edge">
<title>JuniorModule&#45;&gt;AppModule</title>
<path fill="none" stroke="#000000" d="M626.6364,-198.2228C626.6364,-218.3652 626.6364,-248 626.6364,-248 626.6364,-248 688.1097,-248 688.1097,-248"/>
<polygon fill="#000000" stroke="#000000" points="688.1097,-251.5001 698.1097,-248 688.1096,-244.5001 688.1097,-251.5001"/>
</g>
<!-- JuniorService  -->
<g id="node13" class="node">
<title>JuniorService </title>
<polygon fill="#fb8072" stroke="#000000" points="398.4746,-266 301.5254,-266 301.5254,-230 398.4746,-230 398.4746,-266"/>
<text text-anchor="middle" x="350" y="-243.8" font-family="Times,serif" font-size="14.00" fill="#000000">JuniorService </text>
</g>
<!-- JuniorModule&#45;&gt;JuniorService  -->
<g id="edge12" class="edge">
<title>JuniorModule&#45;&gt;JuniorService </title>
<path fill="none" stroke="#000000" stroke-dasharray="5,2" d="M603,-198.0225C603,-215.3734 603,-239 603,-239 603,-239 408.4816,-239 408.4816,-239"/>
<polygon fill="#000000" stroke="#000000" points="408.4816,-235.5001 398.4816,-239 408.4816,-242.5001 408.4816,-235.5001"/>
</g>
<!-- AppService -->
<g id="node8" class="node">
<title>AppService</title>
<ellipse fill="#fdb462" stroke="#000000" cx="892" cy="-180" rx="56.7406" ry="18"/>
<text text-anchor="middle" x="892" y="-175.8" font-family="Times,serif" font-size="14.00" fill="#000000">AppService</text>
</g>
<!-- AppService&#45;&gt;AppModule -->
<g id="edge7" class="edge">
<title>AppService&#45;&gt;AppModule</title>
<path fill="none" stroke="#000000" d="M892,-198.2667C892,-216.5552 892,-242 892,-242 892,-242 791.937,-242 791.937,-242"/>
<polygon fill="#000000" stroke="#000000" points="791.9371,-238.5001 781.937,-242 791.937,-245.5001 791.9371,-238.5001"/>
</g>
<!-- AuthenticationService -->
<g id="node10" class="node">
<title>AuthenticationService</title>
<ellipse fill="#fdb462" stroke="#000000" cx="712" cy="-104" rx="97.2683" ry="18"/>
<text text-anchor="middle" x="712" y="-99.8" font-family="Times,serif" font-size="14.00" fill="#000000">AuthenticationService</text>
</g>
<!-- AuthenticationService&#45;&gt;AuthenticationModule -->
<g id="edge9" class="edge">
<title>AuthenticationService&#45;&gt;AuthenticationModule</title>
<path fill="none" stroke="#000000" d="M762.4639,-119.7472C762.4639,-119.7472 762.4639,-151.87 762.4639,-151.87"/>
<polygon fill="#000000" stroke="#000000" points="758.964,-151.87 762.4639,-161.87 765.964,-151.8701 758.964,-151.87"/>
</g>
<!-- JwtStrategy -->
<g id="node11" class="node">
<title>JwtStrategy</title>
<ellipse fill="#fdb462" stroke="#000000" cx="540" cy="-104" rx="56.7561" ry="18"/>
<text text-anchor="middle" x="540" y="-99.8" font-family="Times,serif" font-size="14.00" fill="#000000">JwtStrategy</text>
</g>
<!-- JwtStrategy&#45;&gt;AuthenticationModule -->
<g id="edge10" class="edge">
<title>JwtStrategy&#45;&gt;AuthenticationModule</title>
<path fill="none" stroke="#000000" d="M576.1776,-118.1498C576.1776,-128.9537 576.1776,-142 576.1776,-142 576.1776,-142 715.5436,-142 715.5436,-142 715.5436,-142 715.5436,-151.8903 715.5436,-151.8903"/>
<polygon fill="#000000" stroke="#000000" points="712.0437,-151.8903 715.5436,-161.8903 719.0437,-151.8904 712.0437,-151.8903"/>
</g>
<!-- JuniorService -->
<g id="node14" class="node">
<title>JuniorService</title>
<ellipse fill="#fdb462" stroke="#000000" cx="214" cy="-248" rx="64.263" ry="18"/>
<text text-anchor="middle" x="214" y="-243.8" font-family="Times,serif" font-size="14.00" fill="#000000">JuniorService</text>
</g>
<!-- JuniorService&#45;&gt;JuniorModule -->
<g id="edge13" class="edge">
<title>JuniorService&#45;&gt;JuniorModule</title>
<path fill="none" stroke="#000000" d="M214,-229.8056C214,-221.7218 214,-214 214,-214 214,-214 579.3636,-214 579.3636,-214 579.3636,-214 579.3636,-208.1944 579.3636,-208.1944"/>
<polygon fill="#000000" stroke="#000000" points="582.8637,-208.1944 579.3636,-198.1944 575.8637,-208.1945 582.8637,-208.1944"/>
</g>
</g>
</svg>
